<svg width="1121" height="608" viewBox="0 0 1121 608" fill="none" xmlns="http://www.w3.org/2000/svg">
<g clip-path="url(#clip0)">
<path d="M166.648 398.686C176.118 391.067 187.001 385.397 198.672 382.002C231.33 372.658 265.115 381.702 297.787 390.449C315.426 395.171 333.665 400.054 351.653 402.065C380.477 405.288 407.343 400.79 429.346 389.058C454.075 375.874 471.886 353.182 476.994 328.365C477.639 325.224 478.069 322.043 478.28 318.844C475.844 320.347 473.399 321.827 470.945 323.284C445.136 338.612 408.86 352.942 382.616 334.165C372.541 326.958 366.005 314.914 364.681 301.124C363.264 286.348 368.018 271.615 377.397 261.715C378.927 260.103 380.566 258.599 382.303 257.213C401.315 242.037 431.327 241.219 452.378 256.218C470.206 268.921 480.768 291.873 480.429 315.153C495.672 305.594 510.413 295.256 524.595 284.183L525.826 285.759C511.238 297.15 496.06 307.765 480.355 317.558C480.18 321.325 479.711 325.074 478.953 328.768C473.727 354.162 455.533 377.36 430.287 390.823C407.926 402.746 380.658 407.321 351.43 404.053C333.293 402.025 314.98 397.122 297.27 392.381C263.369 383.306 231.348 374.733 199.222 383.924C166.93 393.163 140.847 421.503 134.313 454.445C127.777 487.389 141.069 523.541 167.387 544.404L166.144 545.972C139.254 524.654 125.674 487.716 132.351 454.056C136.666 432.302 149.327 412.511 166.648 398.686ZM478.4 316.418C479.157 293.338 468.853 270.412 451.217 257.847C429.031 242.039 396.565 244.394 378.85 263.09C369.861 272.578 365.309 286.724 366.673 300.933C367.941 314.148 374.176 325.668 383.78 332.539C409.146 350.688 444.626 336.588 469.924 321.564C472.761 319.88 475.586 318.164 478.4 316.418V316.418Z" fill="#3F3D56"/>
<path d="M278.5 568.962C432.311 568.962 557 563.142 557 555.962C557 548.782 432.311 542.962 278.5 542.962C124.689 542.962 0 548.782 0 555.962C0 563.142 124.689 568.962 278.5 568.962Z" fill="#3F3D56"/>
<path d="M268 607.962C322.676 607.962 367 602.142 367 594.962C367 587.782 322.676 581.962 268 581.962C213.324 581.962 169 587.782 169 594.962C169 602.142 213.324 607.962 268 607.962Z" fill="#3F3D56"/>
<path d="M185.5 283.462V291.462C185.5 291.462 176.477 333.291 190.5 331.462C213.5 328.462 196.5 294.462 196.5 294.462V287.462L185.5 283.462Z" fill="#FFB8B8"/>
<path d="M297.5 508.462L306.5 533.462L328.5 525.462L318.5 502.462L297.5 508.462Z" fill="#FFB8B8"/>
<path d="M242.5 533.462L236.5 555.462L259.5 562.462L260.5 539.462L242.5 533.462Z" fill="#FFB8B8"/>
<path d="M222.5 281.462L220.5 292.462C220.5 292.462 219.5 300.462 220.5 305.462C221.5 310.462 293.5 517.462 293.5 517.462L324.5 505.462L284.5 374.462L279.5 273.462L222.5 281.462Z" fill="#2F2E41"/>
<path d="M261.5 279.462L257.5 427.462C257.5 427.462 248.5 437.462 250.5 444.462C252.5 451.462 245.5 509.462 245.5 509.462L239.5 538.462L265.5 546.462C265.5 546.462 270.5 520.462 274.5 517.462C278.5 514.462 301.5 424.462 301.5 418.462C301.5 412.462 318.5 279.462 318.5 279.462L276.5 262.462L261.5 279.462Z" fill="#2F2E41"/>
<path d="M308.5 517.462C308.5 517.462 297.5 505.462 291.5 517.462C287.005 526.088 281.996 534.436 276.5 542.462C276.5 542.462 244.5 561.462 276.5 566.462C276.5 566.462 294.5 567.462 303.5 561.462C312.5 555.462 336.5 546.462 336.5 544.462C336.5 542.462 330.5 513.062 324.5 516.262C318.5 519.462 308.5 517.462 308.5 517.462Z" fill="#2F2E41"/>
<path d="M253.5 550.462C253.5 550.462 244.5 537.462 236.5 546.462C228.5 555.462 218.5 581.462 218.5 581.462C218.5 581.462 200.5 608.462 228.5 607.462C256.5 606.462 258.5 596.462 258.5 596.462C258.5 596.462 262.5 570.462 262.5 569.462C262.5 568.462 260.5 558.182 260.5 558.182L253.5 550.462Z" fill="#2F2E41"/>
<path d="M247 73.962C262.464 73.962 275 61.4259 275 45.962C275 30.498 262.464 17.962 247 17.962C231.536 17.962 219 30.498 219 45.962C219 61.4259 231.536 73.962 247 73.962Z" fill="#FFB8B8"/>
<path d="M232.5 63.462L236.5 95.462L248.5 125.462L274.5 94.462V79.462C274.5 79.462 266.5 67.462 268.5 57.462L232.5 63.462Z" fill="#FFB8B8"/>
<path d="M246.5 102.462L232.5 96.462L217.5 273.462L220.5 284.462C220.5 284.462 228.5 289.462 253.5 285.462C278.5 281.462 319.5 284.462 319.5 284.462L322.5 193.462L273.5 86.462L246.5 102.462Z" fill="#D0CDE1"/>
<path d="M221.5 277.462C221.5 277.462 240.5 112.462 239.5 109.462C238.5 106.462 221.5 98.3386 221.5 98.3386C221.5 98.3386 192.5 117.462 193.5 124.462C194.5 131.462 212.5 279.462 212.5 279.462L221.5 277.462Z" fill="#575A89"/>
<path d="M297.5 265.462C297.5 265.462 267.5 148.462 266.5 122.462C265.5 96.462 265.5 93.462 265.5 93.462C265.5 93.462 311.5 77.462 327.5 93.462L330.5 177.462C330.5 177.462 335.5 213.462 333.5 224.462C332.122 231.625 330.115 238.652 327.5 245.462C327.5 245.462 338.5 256.462 328.5 259.462C318.5 262.462 311.5 257.462 307.5 262.462C303.5 267.462 297.5 265.462 297.5 265.462Z" fill="#575A89"/>
<path d="M200.5 118.462C200.5 118.462 188.5 118.462 189.5 132.462C190.5 146.462 189.5 211.462 189.5 211.462C189.5 211.462 180.5 266.462 183.5 270.462C186.5 274.462 182.5 287.462 182.5 287.462L200.5 291.462C200.5 291.462 202.5 277.462 206.5 276.462C210.5 275.462 216.5 246.462 216.5 246.462L200.5 118.462Z" fill="#575A89"/>
<path d="M335.5 241.462L330.908 249.811C330.908 249.811 299.412 274.893 314.956 284.178C330.5 293.462 345.5 259.462 345.5 259.462L350.5 250.462L335.5 241.462Z" fill="#FFB8B8"/>
<path d="M313.5 91.462L327.5 93.462C327.5 93.462 343.5 104.462 344.5 110.462C345.5 116.462 377.5 171.462 377.5 171.462C379.387 175.542 380.408 179.968 380.5 184.462C380.5 191.462 369.5 244.462 363.5 245.462C357.5 246.462 353.5 256.462 353.5 256.462L332.5 243.462C332.566 240.438 332.901 237.426 333.5 234.462C334.5 229.462 338.5 219.462 338.5 219.462L344.5 198.462C343.569 197.763 342.813 196.858 342.292 195.816C341.771 194.775 341.5 193.626 341.5 192.462C341.5 188.462 324.5 167.462 324.5 167.462L313.5 91.462Z" fill="#575A89"/>
<path d="M243.384 112.671C243.384 112.671 217.5 105.462 219.5 100.462C221.5 95.462 223.5 94.462 223.5 94.462C223.5 94.462 226.5 86.462 229.5 86.462C232.5 86.462 235.068 84.0057 235.068 84.0057L246.5 102.462L243.384 112.671Z" fill="#D0CDE1"/>
<path d="M271.515 73.962C271.515 73.962 281.5 71.462 285.5 74.462C289.5 77.462 292.5 77.462 293.5 79.462C294.5 81.462 307.5 83.462 303.5 86.462C299.5 89.462 246.5 102.462 246.5 102.462L271.5 84.462L271.515 73.962Z" fill="#D0CDE1"/>
<path d="M274.636 16.1691C270.168 8.91423 263.175 3.56816 255.003 1.15986L249 5.962L251.334 0.360863C249.371 0.0614662 247.385 -0.053338 245.401 0.0179676L240 6.962L242.235 0.255822C237.549 0.83822 233.034 2.38533 228.975 4.79961C224.916 7.2139 221.402 10.443 218.653 14.2832C211.779 24.1949 212.239 37.9728 219 47.962C220.856 42.2585 221.489 36.9128 223.345 31.2093C224.803 31.4081 226.281 31.4153 227.742 31.2307L230 25.962L230.631 31.0078C237.629 30.398 248.01 29.0594 254.645 27.8328L254 23.962L257.86 27.1787C259.893 26.7107 261.1 26.2863 261 25.962C265.935 33.9171 270.824 38.9983 275.758 46.9533C277.632 35.7324 280.938 26.4052 274.636 16.1691Z" fill="#2F2E41"/>
<path d="M273 45.962C274.105 45.962 275 44.1711 275 41.962C275 39.7528 274.105 37.962 273 37.962C271.895 37.962 271 39.7528 271 41.962C271 44.1711 271.895 45.962 273 45.962Z" fill="#FFB8B8"/>
<path d="M507 296.8H964.184C1050.79 296.8 1121 247.437 1121 160.829V160.829C1121 74.2219 1050.79 38.124 964.184 38.124H820.632C647.418 38.124 507 123.585 507 296.8V296.8Z" fill="#3F3D56"/>
<path d="M938.663 275.821H558.169V274.821C558.169 206.796 584.673 150.752 634.815 112.748C681.119 77.6529 744.983 59.1026 819.505 59.1026H938.663C976.668 59.1026 1008.69 67.4532 1031.28 83.2511C1056.86 101.145 1069.83 127.626 1069.83 161.956C1069.83 196.461 1056.52 225.565 1031.34 246.122C1007.88 265.275 974.966 275.821 938.663 275.821ZM560.171 273.821H938.663C1015.92 273.821 1067.83 228.866 1067.83 161.957C1067.83 97.8624 1020.75 61.1026 938.663 61.1026H819.505C694.401 61.1026 560.741 117.016 560.171 273.821V273.821Z" fill="#6C63FF"/>
<path d="M755 125.962H701V138.962H755V125.962Z" fill="#6C63FF"/>
<path d="M942 125.962H923V138.962H942V125.962Z" fill="#6C63FF"/>
<path d="M980 125.962H961V138.962H980V125.962Z" fill="#6C63FF"/>
<path d="M903 125.962H774V138.962H903V125.962Z" fill="#6C63FF"/>
<path d="M687 209.962H633V222.962H687V209.962Z" fill="#6C63FF"/>
<path d="M874 209.962H855V222.962H874V209.962Z" fill="#6C63FF"/>
<path d="M912 209.962H893V222.962H912V209.962Z" fill="#6C63FF"/>
<path d="M835 209.962H706V222.962H835V209.962Z" fill="#6C63FF"/>
<path d="M910 154.962H856V167.962H910V154.962Z" fill="#6C63FF"/>
<path d="M983 154.962H929V167.962H983V154.962Z" fill="#6C63FF"/>
<path d="M1021 154.962H1002V167.962H1021V154.962Z" fill="#6C63FF"/>
<path d="M652 154.962H633V167.962H652V154.962Z" fill="#6C63FF"/>
<path d="M690 154.962H671V167.962H690V154.962Z" fill="#6C63FF"/>
<path d="M838 154.962H709V167.962H838V154.962Z" fill="#6C63FF"/>
<path d="M744 195.962H798V182.962H744V195.962Z" fill="#6C63FF"/>
<path d="M671 195.962H725V182.962H671V195.962Z" fill="#6C63FF"/>
<path d="M633 195.962H652V182.962H633V195.962Z" fill="#6C63FF"/>
<path d="M1002 195.962H1021V182.962H1002V195.962Z" fill="#6C63FF"/>
<path d="M964 195.962H983V182.962H964V195.962Z" fill="#6C63FF"/>
<path d="M816 195.962L945 195.962V182.962L816 182.962V195.962Z" fill="#6C63FF"/>
</g>
<defs>
<clipPath id="clip0">
<rect width="1121" height="607.962" fill="white"/>
</clipPath>
</defs>
</svg>
