<svg width="1073" height="211" viewBox="0 0 1073 211" fill="none" xmlns="http://www.w3.org/2000/svg">
<path d="M41.7969 136V208H0.453125V3.25H70.2031C90.4531 3.25 106.578 9.53125 118.578 22.0938C130.672 34.6562 136.719 50.9687 136.719 71.0312C136.719 91.0938 130.766 106.938 118.859 118.562C106.953 130.188 90.4531 136 69.3594 136H41.7969ZM41.7969 101.547H70.2031C78.0781 101.547 84.1719 98.9688 88.4844 93.8125C92.7969 88.6562 94.9531 81.1562 94.9531 71.3125C94.9531 61.0937 92.75 52.9844 88.3438 46.9844C83.9375 40.8906 78.0312 37.7969 70.625 37.7031H41.7969V101.547ZM226.438 133.188H205.906V208H164.562V3.25H230.516C251.234 3.25 267.219 8.64062 278.469 19.4219C289.812 30.1094 295.484 45.3437 295.484 65.125C295.484 92.3125 285.594 111.344 265.812 122.219L301.672 206.031V208H257.234L226.438 133.188ZM205.906 98.7344H229.391C237.641 98.7344 243.828 96.0156 247.953 90.5781C252.078 85.0469 254.141 77.6875 254.141 68.5C254.141 47.9688 246.125 37.7031 230.094 37.7031H205.906V98.7344ZM468.031 124.047C468.031 151.516 461.516 172.844 448.484 188.031C435.547 203.219 417.547 210.812 394.484 210.812C371.516 210.812 353.469 203.312 340.344 188.312C327.219 173.219 320.562 152.125 320.375 125.031V90.0156C320.375 61.8906 326.891 39.9531 339.922 24.2031C352.953 8.35937 371.047 0.4375 394.203 0.4375C416.984 0.4375 434.938 8.21875 448.062 23.7812C461.188 39.25 467.844 61 468.031 89.0312V124.047ZM426.547 89.7344C426.547 71.2656 423.922 57.5312 418.672 48.5312C413.422 39.5312 405.266 35.0312 394.203 35.0312C383.234 35.0312 375.125 39.3906 369.875 48.1094C364.625 56.7344 361.906 69.9062 361.719 87.625V124.047C361.719 141.953 364.391 155.172 369.734 163.703C375.078 172.141 383.328 176.359 394.484 176.359C405.266 176.359 413.281 172.234 418.531 163.984C423.781 155.641 426.453 142.75 426.547 125.312V89.7344ZM565.062 3.25H606.406V145C606.406 164.875 600.875 180.812 589.812 192.812C578.75 204.812 564.5 210.812 547.062 210.812C528.312 210.812 513.734 205.234 503.328 194.078C492.922 182.922 487.719 167.406 487.719 147.531H529.203C529.203 166.844 535.156 176.5 547.062 176.5C559.062 176.5 565.062 165.344 565.062 143.031V3.25ZM744.641 119.406H680.234V173.688H756.453V208H638.891V3.25H756.172V37.7031H680.234V86.0781H744.641V119.406ZM919.156 139.797C918.125 163.141 911.562 180.812 899.469 192.812C887.375 204.812 870.312 210.812 848.281 210.812C825.125 210.812 807.359 203.219 794.984 188.031C782.703 172.75 776.562 151 776.562 122.781V88.3281C776.562 60.2031 782.938 38.5469 795.688 23.3594C808.438 8.07812 826.156 0.4375 848.844 0.4375C871.156 0.4375 888.078 6.67187 899.609 19.1406C911.234 31.6094 917.844 49.5156 919.438 72.8594H877.953C877.578 58.4219 875.328 48.4844 871.203 43.0469C867.172 37.5156 859.719 34.75 848.844 34.75C837.781 34.75 829.953 38.6406 825.359 46.4219C820.766 54.1094 818.328 66.8125 818.047 84.5312V123.203C818.047 143.547 820.297 157.516 824.797 165.109C829.391 172.703 837.219 176.5 848.281 176.5C859.156 176.5 866.656 173.875 870.781 168.625C874.906 163.281 877.25 153.672 877.812 139.797H919.156ZM1073 37.7031H1022.38V208H980.891V37.7031H931.109V3.25H1073V37.7031Z" fill="white"/>
</svg>
