<svg width="576" height="512" viewBox="0 0 576 512" fill="none" xmlns="http://www.w3.org/2000/svg">
<rect width="576" height="512" fill="white"/>
<path d="M550.5 241L500.411 154.214C501.482 152.072 502.286 149.661 502.286 146.982C502.286 138.946 495.59 132.249 487.554 131.981L432.107 36.088C432.643 34.481 433.178 32.874 433.178 31.267C433.178 22.696 426.214 15.999 417.91 15.999C413.089 15.999 409.071 18.142 406.124 21.624H299.518C296.839 18.143 292.821 16 288 16C283.179 16 279.161 18.143 276.482 21.625H170.411C167.464 18.143 163.447 16 158.625 16C150.322 16 143.357 22.696 143.357 31.268C143.357 32.875 143.893 34.75 144.429 36.089L88.446 133.322C83.09 135.732 79.339 140.822 79.339 146.983C79.339 147.518 79.607 148.054 79.607 148.59L26.303 240.733C19.071 242.072 13.713 248.233 13.713 255.733C13.713 262.965 18.802 269.126 25.767 270.733L80.946 366.091C80.41 367.698 80.142 369.037 80.142 370.912C80.142 378.144 85.231 384.305 92.196 385.644L143.893 475.376C143.357 476.983 142.822 478.858 142.822 480.733C142.822 489.304 149.786 496.001 158.09 496.001C162.911 496.001 166.929 493.858 169.608 490.644H276.483C279.161 493.857 283.447 496 288 496C292.553 496 296.839 493.857 299.518 490.643H406.661C409.339 493.589 413.357 495.464 417.643 495.464C426.214 495.464 432.911 488.5 432.911 480.196C432.911 478.589 432.644 477.25 432.108 475.911L483.805 385.643C490.769 384.304 495.859 378.143 495.859 370.911C495.859 369.304 495.591 367.697 495.055 366.09L549.966 270.732C556.93 269.393 562.288 263.232 562.288 255.732C562.286 248.5 557.196 242.339 550.5 241V241ZM153.535 450.732L109.875 374.929H153.535V450.732ZM153.535 366.893H109.875C109.607 365.822 109.071 364.751 108.536 363.679L153.535 316.269V366.893ZM153.535 304.482L103.178 357.786C101.839 357.25 100.499 356.446 99.16 356.179L43.447 259.75C43.982 258.411 43.982 257.071 43.982 255.732C43.982 254.393 43.982 253.322 43.714 252.25L95.679 162.25C98.358 161.982 101.036 161.178 103.447 159.571L153.536 211.536V304.482H153.535ZM153.535 202.16L107.732 154.75C109.071 152.607 109.875 149.929 109.875 146.983C109.875 146.715 109.607 146.179 109.607 145.911L153.535 130.107V202.16ZM153.535 121.535L109.875 137.339L153.535 61.803V121.535ZM480.054 160.643L480.858 161.982L445.5 329.125L381.75 261.893L479.786 160.375L480.054 160.643ZM291.75 355.107L303.268 366.893H280.5L291.75 355.107ZM291.482 343.857L208.179 258.411L287.732 174.036L370.768 261.625L291.482 343.857V343.857ZM296.839 349.75L376.125 267.518L443.625 338.768L437.733 366.893H313.714L296.839 349.75V349.75ZM410.411 44.393C411.482 44.929 412.553 45.465 413.893 45.733L471.75 146.447V146.983C471.75 149.929 472.553 152.607 473.893 154.75L376.393 256L293.358 168.411L410.411 44.393ZM401.304 42.25L287.732 162.518L230.678 102.25L397.017 42.25H401.304V42.25ZM277.821 42.25C280.499 44.928 283.981 46.535 288 46.535C292.019 46.535 295.5 44.928 298.179 42.25H373.179L224.786 95.821L173.893 42.25H277.821V42.25ZM161.572 47.875L162.643 45.733C163.547 45.502 164.44 45.2338 165.322 44.929L216.483 98.769L161.572 118.59V47.875ZM161.572 127.161L222.375 105.197L282.107 168.411L202.554 252.518L161.572 210.465V127.161ZM161.572 219.839L198 257.607L161.572 295.911V219.839V219.839ZM161.572 307.697L203.625 263.233L286.393 349.215L269.25 366.893H161.572V307.697V307.697ZM168.536 469.75C166.929 468.143 165.054 467.072 162.643 466.268L161.572 464.661V374.929H261.482L169.875 469.75H168.536ZM298.447 469.75C295.768 467.34 292.019 465.465 288 465.465C283.981 465.465 280.233 467.34 277.553 469.75H181.124L272.731 374.929H311.035L402.642 469.75H298.447ZM418.447 457.964L414.161 465.464C412.822 465.732 411.751 466.267 410.679 466.803L321.483 374.928H435.859L418.447 457.964V457.964ZM431.303 435.732L444.161 374.929H466.125L431.303 435.732ZM466.125 366.893H445.768L450.321 345.733L467.464 363.947C466.929 364.75 466.393 365.821 466.125 366.893V366.893ZM532.286 259.482L476.839 356.179C475.5 356.714 474.16 357.25 472.821 358.053L452.196 336.089L486.75 172.161L532.553 251.447C532.286 252.786 531.75 254.125 531.75 255.732C531.75 257.071 532.018 258.143 532.286 259.482Z" fill="#FF7E00"/>
</svg>
